/* XPM */
static char *result[] = {
/* columns rows colors chars-per-pixel */
"32 32 6 1 ",
"  c #9C4A00",
". c #CC7E00",
"X c #CC6A14",
"o c #E5968A",
"O c #FFCEC6",
"+ c None",
/* pixels */
"++++++++++++++++++++++++++++++++",
"++++++++++++++++++++++++++++++++",
"++++++++++++oooooo..++++++++++++",
"+++++++++oooOOOOOOXXX..+++++++++",
"++++++++oOOOOOOOO    X..++++++++",
"++++++ooOOOOOOOO    OOXX..++++++",
"++++++oOOOOOOXXXX OOOOOX..++++++",
"+++++oOOOOOXXOOOXXXOOOOOX..+++++",
"+++++oOOOOX  O  X  XXOOOX..+++++",
"++++oOOOOX ..O  X   XOO OX..++++",
"++++oOOOX .  O  X  . X   X..++++",
"++++oOOOX.   O  X   .X   X..++++",
"+++oOOOOX.   O  X   .X   OX..+++",
"+++oOOOX     O  X     X  OX..+++",
"+++oOOOX     O  X     X   X..+++",
"+++oOOOX     O  X     X   X..+++",
"+++oOOOX     O  X     X   X..+++",
"+++oOOOX .   O  X     X   X..+++",
"+++oOOOX ..  O  X   . X   X..+++",
"+++oOOOOX....O  X  ..X   OX..+++",
"++++oOOOX....O  X  ..X   X..++++",
"++++oOOOX ...O  X  . X   X..++++",
"++++oOOOOX ..O  X   X   OX..++++",
"+++++oOOOOX  XXXX  XX   X..+++++",
"+++++oOOOOOXX    XXOO  OX..+++++",
"++++++oOOOOOOXXXXOOOO OX..++++++",
"++++++ooOOOOOO  OOOOOOXX..++++++",
"++++++++oOOOO   OOOO X..++++++++",
"+++++++++ooo  OOOOXXX..+++++++++",
"++++++++++++XXXXXX..++++++++++++",
"++++++++++++++++++++++++++++++++",
"++++++++++++++++++++++++++++++++"
};
