/* XPM */
static char *result[] = {
/* columns rows colors chars-per-pixel */
"32 32 11 1 ",
"  c black",
". c gray20",
"X c #522100",
"o c #664733",
"O c #9C4A00",
"+ c #CC7E00",
"@ c #CC6A14",
"# c #E69C21",
"$ c #E5968A",
"% c #FFCEC6",
"& c None",
/* pixels */
"&&&&&&&&&&&&&&&&&&&&&&&&&&&&&&&&",
"&&&&&&&&&&&&&&&&&&&&&&&&&&&&&&&&",
"&&&&&&&&&&&&&%%%%%%&&&&&&&&&&&&&",
"&&&&&&&&&&&&%%$$$$$%&&&&&&&&&&&&",
"&&&&&&&&&&&&%$$#### &&&&&&&&&&&&",
"&&&&&&&&&&&&%$##### &&&&&&&&&&&&",
"&&&&&&&&&&&&%###### &&&&&&&&&&&&",
"&&&&&&&&&&&&%##++++ &&&&&&&&&&&&",
"&&&&&&&&&&&&%#+++++ &&&&&&&&&&&&",
"&&&&&&&&&&&&%#+++++ &&&&&&&&&&&&",
"&&&&&&&&&&&&%++++++ &&&&&&&&&&&&",
"&&&&&&&&&&&&%++@@@@ &&&&&&&&&&&&",
"&&&&&&&&&&&&%+@@@@@ &&&&&&&&&&&&",
"&&&&&&&&&&&&%+@@@@@ &&&&&&&&&&&&",
"&&&&&&&&&&&&%@@@@@@ &&&&&&&&&&&&",
"&&&&&&&&&&&&%@@@@@@ &&&&&&&&&&&&",
"&&&&&&&&&&&&%OOOOOO &&&&&&&&&&&&",
"&&&&&&&&&&&&%OOOOOO &&&&&&&&&&&&",
"&&&&&&&&&&&&%OOOOOo &&&&&&&&&&&&",
"&&&&&&&&&&&&%OOOOOo &&&&&&&&&&&&",
"&&&&&&&&&&&&%OOOOoo &&&&&&&&&&&&",
"&&&&&&&&&&&&%oooooo &&&&&&&&&&&&",
"&&&&&&&&&&&&%ooooo. &&&&&&&&&&&&",
"&&&&&&&&&&&&%ooooo. &&&&&&&&&&&&",
"&&&&&&&&&&&&%oooo.. &&&&&&&&&&&&",
"&&&&&&&&&&&&%...... &&&&&&&&&&&&",
"&&&&&&&&&&&&%.....X &&&&&&&&&&&&",
"&&&&&&&&&&&&%....XX &&&&&&&&&&&&",
"&&&&&&&&&&&&%XXXXX  &&&&&&&&&&&&",
"&&&&&&&&&&&&&      &&&&&&&&&&&&&",
"&&&&&&&&&&&&&&&&&&&&&&&&&&&&&&&&",
"&&&&&&&&&&&&&&&&&&&&&&&&&&&&&&&&"
};
