/* XPM */
static char *result[] = {
/* columns rows colors chars-per-pixel */
"32 32 7 1 ",
"  c gray20",
". c #522100",
"X c #664733",
"o c #9C4A00",
"O c #E5968A",
"+ c #FFCEC6",
"@ c None",
/* pixels */
"@@@@@@@@@@@@@@@@@@@@@@@@@@@@@@@@",
"@@@@@@@@@@@@@@@@@@@@@@@@@@@@@@@@",
"@@@@@@@@@@@@++OOXXXX@@@@@@@@@@@@",
"@@@@@@@@@@++OOoo   XXX@@@@@@@@@@",
"@@@@@@@@@++OOo. .     X@@@@@@@@@",
"@@@@@@@@++OOo  ...     X@@@@@@@@",
"@@@@@@@@++Oo    .oo     X@@@@@@@",
"@@@@@@@++OOo   oo  oo   X@@@@@@@",
"@@@@@@@++OOo  o  o   o  X@@@@@@@",
"@@@@@@++OOo   o  o   o   X@@@@@@",
"@@@@@@++OOo  o   o X  o  X@@@@@@",
"@@@@@@++OOo .oX  o XX o  X@@@@@@",
"@@@@@++OOo ..oX  o .X o   X@@@@@",
"@@@@@++OOo .o .  o .X  o  X@@@@@",
"@@@@@++OOo .o .  o .X  o  X@@@@@",
"@@@@@++OOo..o .  o .X  o  X@@@@@",
"@@@@@++OOo..o .  o .X  o  X@@@@@",
"@@@@@++OOo .o .  o .X  o  X@@@@@",
"@@@@@++OOo .o X  o .X  o  X@@@@@",
"@@@@@++OOo ..oX  o XX o   X@@@@@",
"@@@@@@++OOo..oX  o XX o  X@@@@@@",
"@@@@@@++OOo..o   o X  o  X@@@@@@",
"@@@@@@++OOo ..o  o   o   X@@@@@@",
"@@@@@@@++OOo..o  oo  o  X@@@@@@@",
"@@@@@@@++OOo...oo  oo   X@@@@@@@",
"@@@@@@@@++Oo ... oo     X@@@@@@@",
"@@@@@@@@++OOo ..  ..   X@@@@@@@@",
"@@@@@@@@@++OOo ..   . X@@@@@@@@@",
"@@@@@@@@@@++OOoo.  XXX@@@@@@@@@@",
"@@@@@@@@@@@+++OOoooo@@@@@@@@@@@@",
"@@@@@@@@@@@@@@@@@@@@@@@@@@@@@@@@",
"@@@@@@@@@@@@@@@@@@@@@@@@@@@@@@@@"
};
