/* XPM */
static char *result[] = {
/* columns rows colors chars-per-pixel */
"32 32 6 1 ",
"  c black",
". c gray20",
"X c #9C4A00",
"o c #CC6A14",
"O c #E5968A",
"+ c #FFCEC6",
/* pixels */
"++++++++.+++++++++++++++.OOOOOOO",
"OOOOOOOO.+OOOOOOOOOOOOOO.Ooooooo",
"XXXOXOXo.+OOXOXOXXXOXOXo.OooXoXo",
"XXOXXXXo.+OXXXOXXXOXXXXo.OoXXXoX",
"XXXoXoXo.+OXXXXoXXXoXoXo.OoXXXXo",
"oXXXoXoo.+OXoXoXoXXXoXoo.OoXoXoX",
"oooooooo.Ooooooooooooooo.ooooooo",
" .     . .     . .     .       .",
".+++++++++++++++.++++++++OOOOOOO",
".+OOOOOOOOOOOOOO.+OOOOOOOooooooo",
".+OOXOXOXXXOXOXo.+OOXOXOXXXoXoXo",
".+OXXXOXXXOXXXXo.+OXXXOXXXoXXXXo",
".+OXXXXoXXXoXoXo.+OXXXXoXXXoXoXo",
".+OXoXoXoXXXoXoo.+OXoXoXoXXXoXoo",
".Ooooooooooooooo.Ooooooooooooooo",
"       . .     . .     . .     .",
"++++++++.+++++++++++++++.OOOOOOO",
"OOOOOOOO.+OOOOOOOOOOOOOO.Ooooooo",
"XXXOXOXo.+OOXOXOXXXOXOXo.OooXoXo",
"XXOXXXXo.+OXXXOXXXOXXXXo.OoXXXoX",
"XXXoXoXo.+OXXXXoXXXoXoXo.OoXXXXo",
"oXXXoXoo.+OXoXoXoXXXoXoo.OoXoXoX",
"oooooooo.Ooooooooooooooo.ooooooo",
" .     . .     . .     .       .",
".+++++++++++++++.++++++++OOOOOOO",
".+OOOOOOOOOOOOOO.+OOOOOOOooooooo",
".+OOXOXOXXXOXOXo.+OOXOXOXXXoXoXo",
".+OXXXOXXXOXXXXo.+OXXXOXXXoXXXXo",
".+OXXXXoXXXoXoXo.+OXXXXoXXXoXoXo",
".+OXoXoXoXXXoXoo.+OXoXoXoXXXoXoo",
".Ooooooooooooooo.Ooooooooooooooo",
"       . .     . .     . .     ."
};
