/* XPM */
static char *result[] = {
/* columns rows colors chars-per-pixel */
"32 32 7 1 ",
"  c black",
". c gray20",
"X c #0A6600",
"o c #109400",
"O c #8CD600",
"+ c #BDE573",
"@ c None",
/* pixels */
"+ooooOO+++++++++++++++++++++OO.@",
"+oXooooOOOOOOOOOOOOOOOOOOOOOoO.X",
"+oXoooooooooooooooooooooooooXo.+",
"+oXXooooooooooooooooooooooooXX O",
"+oXXXoooooooooooooooooooooooXX O",
"+oXXXXXXXXXXXXXXXXXXXXXXXXXX.X o",
"+oXXXXXXXXXXXXXXXXXXXXXXXXXX.. o",
"++oXXXXXXXXXXXXXXXXXXXXXXXXX.. X",
"++++++++++++++++++++++++++++O. X",
"++++++++++++++++++++++++++++OO +",
"++++++++++++++++++++++++++++OO.+",
"++++++++++++++++++++++++++++OO.+",
"++++++++++++++++++++++++++++OO.+",
"++++++++++++++++++++++++++++OO.+",
"++++++++++++++++++++++++++++OO.+",
"++++++++++++++++++++++++++++OO.+",
"+++OOOOOOOOOOOOOOOOOOOOOOOOOoO.+",
"++OOOOOOOOOOOOOOOOOOOOOOOOOOoo.+",
"+OOOOOOOOOOOOOOOOOOOOOOOOOOOoo +",
"+OOoooooooooooooooooooooooooXo O",
"+OooooooooooooooooooooooooooXX O",
"+oooooooooooooooooooooooooooXX o",
"+ooooO++++++++++++++++++++++OX o",
"+oooO+++++++++++++++++++++++OO.o",
"+oooO+++++++++++++++++++++++OO.+",
"+oXXXXXXXXXXXXXXXXXXXXXXXXXX...+",
"+oXXXXXXXXXXXXXXXXXXXXXXXXXX.. +",
"+ooXXXXXXXXXXXXXXXXXXXXXXXXX.. X",
"+oooooooooooooooooooooooooooXX.X",
"+ooOOOOOOOOOOOOOOOOOOOOOOOOOoo.O",
"+oOOOOOOOOOOOOOOOOOOOOOOOOOOoo O",
"+oOOOOOOOOOOOOOOOOOOOOOOOOOOoo.O"
};
